<svg width="50" height="50" viewBox="0 0 50 50" fill="none" xmlns="http://www.w3.org/2000/svg">
<path d="M10.3061 39.9692H11.3776C11.5613 39.9692 11.6838 39.8473 11.6838 39.6643C11.6838 39.4813 11.5613 39.3594 11.3776 39.3594H10.3061C10.1225 39.3594 10 39.4813 10 39.6643C10 39.8473 10.1225 39.9692 10.3061 39.9692Z" fill="#3E429A"/>
<path d="M39.6935 39.3596H33.8156C33.8156 39.2986 33.8156 39.2681 33.8156 39.2071V35.8528C33.8156 34.1451 32.7135 32.7119 31.1215 32.224C33.387 30.5468 34.8565 28.0463 35.2238 25.2408H36.5096C37.2444 25.2408 37.8567 24.6309 37.8567 23.8991C37.8567 23.1367 37.2138 22.5573 36.5096 22.5573H35.2238C34.6116 17.9222 30.9072 14.2324 26.2539 13.6225V12.3417C26.2539 11.6099 25.6416 11 24.9068 11C24.1721 11 23.5598 11.6099 23.5598 12.3417V13.6225C18.9065 14.2324 15.2021 17.9222 14.5899 22.5573H13.3041C12.5693 22.5573 11.957 23.1672 11.957 23.8991C11.957 24.6309 12.5693 25.2408 13.3041 25.2408H14.5899C14.9572 28.1073 16.4879 30.6383 18.8452 32.3155C17.1921 32.9253 16.0287 34.4805 16.0287 36.3407V39.2376V39.3901H12.6305C12.4469 39.3901 12.3244 39.5121 12.3244 39.6951C12.3244 39.878 12.4469 40 12.6305 40H39.6935C39.8772 40 39.9997 39.878 39.9997 39.6951C39.9997 39.5121 39.8772 39.3596 39.6935 39.3596ZM33.2033 35.8528V39.2376C33.2033 39.3291 33.1421 39.3901 33.0502 39.3901H26.4682L29.3459 34.877C29.4071 34.755 29.4071 34.6025 29.3153 34.511L28.7948 33.9316L29.0398 33.4437C29.5296 33.2303 30.0194 32.9863 30.448 32.7119C32.04 32.8948 33.2033 34.2366 33.2033 35.8528ZM21.876 33.8097L21.2638 32.6509H22.5495L23.5292 38.2313L21.2944 34.7245L21.8148 34.1756C21.9067 34.0536 21.9373 33.9317 21.876 33.8097ZM18.2942 22.5573H17.2227C17.7737 19.3249 20.3147 16.8244 23.5598 16.245V17.2818C23.5598 18.0137 24.1721 18.6236 24.9068 18.6236C25.6416 18.6236 26.2539 18.0137 26.2539 17.2818V16.245C29.5296 16.7939 32.04 19.3249 32.6216 22.5573H31.5501C30.8154 22.5573 30.2031 23.1672 30.2031 23.8991C30.2031 24.6309 30.8154 25.2408 31.5501 25.2408H32.6216C32.1318 28.0158 30.1725 30.3028 27.4784 31.2177C27.4784 31.1262 27.4784 31.0347 27.4784 30.9432C27.907 30.4553 28.2744 29.8149 28.4887 29.1136H29.0398C29.5602 29.1136 29.9888 28.6866 29.9888 28.1682V27.1314C29.9888 26.613 29.5602 26.1861 29.0398 26.1861H28.9173C30.1113 23.4416 28.5499 21.8254 28.4887 21.7645C26.162 19.2334 23.7741 20.6057 23.1006 21.0936C22.9781 21.1851 22.8863 21.2156 22.7638 21.2461C21.6924 21.49 20.9882 22.0084 20.6515 22.8013C20.131 24.021 20.6821 25.5152 21.0188 26.2776H20.9576C20.4372 26.2776 20.0086 26.7045 20.0086 27.2229V28.2597C20.0086 28.7781 20.4372 29.205 20.9576 29.205H21.4781C21.723 29.9369 22.0597 30.5773 22.5189 31.0652V31.3091C19.7943 30.4248 17.7125 28.0768 17.2227 25.2408H18.2942C19.0289 25.2408 19.6412 24.6309 19.6412 23.8991C19.6718 23.1367 19.0595 22.5573 18.2942 22.5573ZM28.152 33.8097C28.0907 33.9317 28.1213 34.0536 28.1826 34.1451L28.703 34.694L26.4988 38.1703L27.5397 32.6509H28.7642L28.152 33.8097ZM28.7642 26.8265H29.0398C29.2234 26.8265 29.3765 26.979 29.3765 27.1619V28.1987C29.3765 28.3817 29.2234 28.5342 29.0398 28.5342H28.6418C28.7336 28.1073 28.7642 27.6803 28.7642 27.2229C28.7642 27.1009 28.7642 26.9485 28.7642 26.8265ZM28.4275 25.7287L28.152 25.0883C27.754 24.082 26.6212 23.96 26.0702 23.96C25.9477 23.96 25.8253 23.96 25.7947 23.96C24.0496 23.8991 23.3761 23.0147 23.3455 22.9842C23.2843 22.8927 23.1312 22.8318 23.0088 22.8623C21.9067 23.1672 21.4781 24.4175 21.2944 25.3628C21.0495 24.6614 20.8658 23.7466 21.2025 23.0147C21.4474 22.4353 22.0291 22.0084 22.8863 21.8254C23.07 21.795 23.2537 21.7035 23.4374 21.5815C24.1721 21.0631 26.0702 20.0873 28.0295 22.1914C28.0907 22.2524 29.2847 23.5331 28.4275 25.7287ZM21.3556 28.5952H20.9882C20.8045 28.5952 20.6515 28.4427 20.6515 28.2597V27.2229C20.6515 27.04 20.8045 26.8875 20.9882 26.8875H21.2331V27.2229C21.2025 27.7108 21.2638 28.1682 21.3556 28.5952ZM21.8148 27.2229C21.8148 26.7045 21.8148 26.6435 21.8148 26.5825C21.8148 25.8507 22.0291 23.9905 23.0088 23.5636C23.3455 23.8991 24.1721 24.5699 25.7947 24.6309H25.8253C25.8253 24.6309 27.2335 24.4784 27.5703 25.3628L28.0907 26.613C28.1213 26.8265 28.1213 27.04 28.1213 27.2534C28.1213 28.6562 27.6621 29.8759 26.958 30.6383L26.9274 30.6688C26.4069 31.2482 25.7028 31.5531 24.9375 31.5531C24.2027 31.5531 23.5598 31.2482 23.0394 30.7298C23.0394 30.7298 23.0394 30.7298 23.0088 30.6993C22.3046 29.9064 21.8148 28.6866 21.8148 27.2229ZM23.1312 32.346C23.1618 32.0715 23.1618 31.8275 23.1618 31.5836C23.6823 31.9495 24.2946 32.163 24.9681 32.163C25.6722 32.163 26.3151 31.919 26.8662 31.5226V31.6751C26.8662 31.8885 26.8968 32.102 26.9274 32.346L26.6519 33.8097C25.5497 34.0841 24.4476 34.1146 23.3455 33.8707L23.1312 32.346ZM23.4986 34.511C24.5089 34.694 25.5191 34.694 26.56 34.4805L25.6416 39.3901H24.3558L23.4986 34.511ZM30.2337 32.102C29.9888 32.2545 29.7439 32.4069 29.499 32.5289L29.5296 32.4984C29.5908 32.4069 29.5908 32.285 29.5296 32.1935C29.4684 32.102 29.3765 32.041 29.2541 32.041H27.5397C27.5397 31.98 27.5397 31.919 27.5091 31.858C30.5092 30.8822 32.7135 28.3207 33.2339 25.2408H34.6422C34.2442 28.0768 32.6522 30.5468 30.2337 32.102ZM37.275 23.8991C37.275 24.2955 36.9382 24.6309 36.5402 24.6309C36.5709 24.6309 32.2236 24.6309 31.5501 24.6309C31.1521 24.6309 30.8154 24.2955 30.8154 23.8991C30.8154 23.5026 31.1521 23.1672 31.5501 23.1672H36.5402C36.9382 23.1367 37.275 23.4721 37.275 23.8991ZM34.6422 22.5573C34.6115 22.5573 33.1421 22.5573 33.2339 22.5573C32.6522 18.9895 29.8663 16.184 26.2845 15.6046V14.2019C30.6011 14.8118 34.0299 18.2576 34.6422 22.5573ZM24.1721 12.3417C24.1721 11.9453 24.5089 11.6099 24.9068 11.6099C25.3048 11.6099 25.6416 11.9453 25.6416 12.3417V17.3123C25.6416 17.7087 25.3048 18.0442 24.9068 18.0442C24.5089 18.0442 24.1721 17.7087 24.1721 17.3123C24.1721 14.5068 24.1721 15.0862 24.1721 12.3417ZM23.5598 14.2324V15.6351C19.978 16.2145 17.1921 18.9895 16.6104 22.5573H15.2021C15.8144 18.2576 19.2432 14.8118 23.5598 14.2324ZM12.5693 23.8991C12.5693 23.5026 12.9061 23.1672 13.3041 23.1672H18.2942C18.6922 23.1672 19.0289 23.5026 19.0289 23.8991C19.0289 24.2955 18.6922 24.6309 18.2942 24.6309C16.7022 24.6309 15.2328 24.6309 13.3041 24.6309C12.9061 24.6309 12.5693 24.2955 12.5693 23.8991ZM15.2328 25.2408H16.641C17.1614 28.3817 19.4881 31.0042 22.5495 31.919V32.041H20.3759C20.131 32.041 19.9167 32.0715 19.6718 32.102C17.1921 30.5468 15.6001 28.0768 15.2328 25.2408ZM16.641 39.2376V36.3407C16.641 34.3281 18.2942 32.6814 20.3147 32.6814H20.529L21.2025 33.9316L20.6821 34.511C20.5902 34.6025 20.5902 34.755 20.6515 34.877L23.5598 39.3901H16.7941C16.7022 39.3596 16.641 39.2986 16.641 39.2376Z" fill="#3E429A"/>
<path d="M23.3453 27.5891C23.6208 27.5891 23.8351 27.3756 23.8351 27.1012C23.8351 26.8267 23.6208 26.6133 23.3453 26.6133C23.0698 26.6133 22.8555 26.8267 22.8555 27.1012C22.8555 27.3756 23.0698 27.5891 23.3453 27.5891Z" fill="#3E429A"/>
<path d="M26.7125 27.5891C26.988 27.5891 27.2023 27.3756 27.2023 27.1012C27.2023 26.8267 26.988 26.6133 26.7125 26.6133C26.437 26.6133 26.2227 26.8267 26.2227 27.1012C26.2227 27.3756 26.437 27.5891 26.7125 27.5891Z" fill="#3E429A"/>
<path d="M25.0012 30.2102C25.5829 30.2102 26.0421 29.7832 26.1033 29.2344H23.9297C23.9603 29.7832 24.4195 30.2102 25.0012 30.2102Z" fill="#3E429A"/>
</svg>
