<svg width="50" height="50" viewBox="0 0 50 50" fill="none" xmlns="http://www.w3.org/2000/svg">
<path d="M11.1878 28.7002C10.9886 28.4431 10.8789 28.1201 10.8789 27.7906V24.3204C10.8789 24.0679 10.6821 23.8633 10.4395 23.8633C10.1968 23.8633 10 24.0679 10 24.3204V27.7906C10 28.328 10.1788 28.8547 10.5017 29.2717L15.2941 35.5313C15.4561 35.7429 15.5453 36.0082 15.5453 36.2784V38.5406C15.5453 38.7931 15.7421 38.9977 15.9848 38.9977C16.2275 38.9977 16.4242 38.7931 16.4242 38.5406V36.2784C16.4242 35.8022 16.2671 35.3347 15.9817 34.9618L11.1878 28.7002Z" fill="#3E429A"/>
<path d="M39.559 25.207C39.3162 25.207 39.1195 25.4116 39.1195 25.6641V27.7917C39.1195 28.1211 39.0098 28.4441 38.8092 28.7033L34.0168 34.9629C33.7314 35.3356 33.5742 35.8032 33.5742 36.2794V38.5417C33.5742 38.7942 33.7709 38.9988 34.0137 38.9988C34.2564 38.9988 34.4531 38.7942 34.4531 38.5417V36.2794C34.4531 36.0093 34.5423 35.744 34.7043 35.5324L39.4952 29.2748C39.8197 28.8558 39.9984 28.329 39.9984 27.7917V25.6641C39.9984 25.4117 39.8017 25.207 39.559 25.207Z" fill="#3E429A"/>
<path d="M39.6902 18.7406C39.4905 18.5329 39.2251 18.4184 38.9429 18.4184C37.786 18.4184 36.8447 19.3972 36.8447 20.6002V25.1876C36.5635 25.0365 36.2479 24.976 35.939 25.0061C35.8963 23.6323 34.9388 22.4713 33.6301 22.2257L31.957 21.9117L31.8431 20.9449C32.4724 20.3656 32.8759 19.5581 32.9619 18.6585L33.0248 17.9996C33.1027 17.1848 32.8443 16.3691 32.3159 15.7619C31.7882 15.1556 31.0352 14.8077 30.2497 14.8072C30.2492 14.8072 30.2487 14.8072 30.2483 14.8072C29.4634 14.8072 28.711 15.1545 28.1841 15.7599C27.8458 16.1486 27.6192 16.6232 27.5201 17.1283L26.7262 16.9793L26.6277 16.0281C26.8159 15.8507 26.986 15.6521 27.1316 15.4337C27.4548 14.9495 27.655 14.3836 27.7106 13.7978L27.7728 13.1491C27.8496 12.3453 27.5947 11.5406 27.0734 10.9417C26.5529 10.3435 25.81 10.0004 25.0338 10C23.7421 10 22.6113 10.9538 22.345 12.2679C22.295 12.515 22.4469 12.7574 22.6844 12.8095C22.9221 12.8614 23.155 12.7035 23.205 12.4565C23.3861 11.5628 24.1552 10.9142 25.0348 10.9142C25.5697 10.9144 26.0623 11.142 26.4217 11.5551C26.7768 11.9631 26.9504 12.5112 26.8981 13.0586L26.8359 13.7075C26.7949 14.1391 26.6475 14.5557 26.4093 14.9126C26.1712 15.2699 25.8479 15.5598 25.4742 15.7508C25.2009 15.8908 24.8746 15.8905 24.601 15.7502C24.0319 15.4588 23.5972 14.9569 23.3771 14.3369C23.293 14.1001 23.0405 13.9791 22.8126 14.0665C22.5849 14.1539 22.4685 14.4167 22.5526 14.6535C22.742 15.1869 23.0488 15.6555 23.4446 16.028L23.3459 16.9791L22.4811 17.1414C22.3828 16.6323 22.155 16.1536 21.8141 15.7619C21.2865 15.1555 20.5334 14.8076 19.748 14.8072C19.7475 14.8072 19.7471 14.8072 19.7466 14.8072C18.9616 14.8072 18.2092 15.1544 17.6823 15.7599C17.1542 16.3668 16.8965 17.1824 16.9752 17.9976L17.0388 18.6564C17.1255 19.5547 17.5287 20.3615 18.1569 20.9411L18.0427 21.9116L16.3695 22.2255C15.0609 22.4712 14.1034 23.6321 14.0607 25.0058C13.7519 24.9759 13.4363 25.0363 13.155 25.1875V20.6002C13.155 19.3972 12.2138 18.4184 11.0568 18.4184C10.7747 18.4184 10.5093 18.5329 10.3103 18.7398C10.1103 18.9471 10 19.2234 10 19.5178V22.1897C10 22.4421 10.1968 22.6467 10.4395 22.6467C10.6821 22.6467 10.8789 22.4421 10.8789 22.1897V19.5178C10.8789 19.4511 10.9112 19.4077 10.9312 19.3871C10.9551 19.3622 10.9963 19.3326 11.057 19.3326C11.7294 19.3326 12.2764 19.9012 12.2764 20.6002V26.61C12.2559 27.047 12.3981 27.4913 12.7063 27.8401L16.0608 31.6369C16.225 31.8228 16.503 31.8348 16.6817 31.6641C16.8604 31.4933 16.8722 31.2041 16.708 31.0182L13.3534 27.2215C13.0789 26.9106 13.0899 26.4324 13.3789 26.1358C13.6708 25.836 14.1453 25.8367 14.4365 26.137L19.214 31.0644C19.8628 31.7335 20.235 32.6624 20.235 33.6127V38.5429C20.235 38.7954 20.4317 39 20.6744 39C20.9171 39 21.1139 38.7954 21.1139 38.5429V33.6127C21.1139 32.4203 20.6469 31.2549 19.8328 30.4152L14.9378 25.378V25.1016C14.9378 24.1292 15.6057 23.2979 16.5258 23.1253L18.1936 22.8123C18.5241 23.3691 19.1014 23.7132 19.7492 23.7132C20.3969 23.7132 20.9742 23.3691 21.3047 22.8123L22.9725 23.1253C23.8926 23.2979 24.5605 24.1292 24.5605 25.1016V31.2104C24.5605 31.4629 24.7572 31.6675 24.9999 31.6675C25.2427 31.6675 25.4394 31.4629 25.4394 31.2104V25.1016C25.4394 24.1292 26.1072 23.2979 27.0274 23.1253L28.6953 22.8123C29.0258 23.3691 29.603 23.7132 30.2508 23.7132C30.8985 23.7132 31.4758 23.3691 31.8063 22.8123L33.4742 23.1253C34.3942 23.2979 35.0622 24.1292 35.0622 25.1016V25.3779L32.0077 28.5166C31.8355 28.6943 31.8342 28.9837 32.0051 29.1629C32.1761 29.3422 32.4542 29.3433 32.6266 29.1656L35.563 26.137C35.8546 25.8367 36.3291 25.836 36.6209 26.1356C36.9089 26.4213 36.9179 26.9234 36.6465 27.2215L33.292 31.0184C33.1278 31.2043 33.1395 31.4935 33.3182 31.6643C33.4027 31.745 33.5092 31.7848 33.6155 31.7848C33.7342 31.7848 33.8525 31.7351 33.9391 31.637L37.2938 27.8399C37.5741 27.5226 37.7269 27.1092 37.7236 26.6788V20.6002C37.7236 19.9012 38.2706 19.3326 38.9429 19.3326C39.0036 19.3326 39.0448 19.3621 39.0695 19.3878C39.0888 19.4077 39.1211 19.4511 39.1211 19.5178V23.5323C39.1211 23.7848 39.3178 23.9893 39.5605 23.9893C39.8033 23.9893 40 23.7848 40 23.5323V19.5178C40 19.2233 39.8897 18.947 39.6902 18.7406ZM28.8358 16.3734C29.2017 15.953 29.7033 15.7215 30.2484 15.7215C30.7941 15.7218 31.2976 15.954 31.6644 16.3754C32.0265 16.7916 32.2037 17.3507 32.1503 17.9093L32.0874 18.5681C32.001 19.4721 31.4823 20.2508 30.6998 20.6513C30.4198 20.7945 30.0856 20.7944 29.8054 20.6507C29.0221 20.2492 28.5024 19.4696 28.4151 18.5652L28.3515 17.9063C28.2976 17.3478 28.4741 16.7891 28.8358 16.3734ZM25.0386 16.7694C25.3002 16.7694 25.5613 16.7122 25.8029 16.5994L25.8754 17.2995C25.6919 17.6969 25.3288 17.8417 25.0361 17.8417C24.7435 17.8417 24.3805 17.697 24.197 17.2995L24.2698 16.5976C24.5128 16.7116 24.7756 16.7694 25.0386 16.7694ZM17.9135 18.5652L17.85 17.9063C17.7961 17.3478 17.9725 16.789 18.3342 16.3735C18.7002 15.953 19.2017 15.7215 19.7469 15.7215C20.2926 15.7218 20.7961 15.954 21.1629 16.3754C21.5251 16.7917 21.7022 17.3507 21.6488 17.9093L21.5858 18.5681C21.4995 19.4721 20.9807 20.2508 20.1983 20.6513C19.9184 20.7945 19.5841 20.7944 19.3039 20.6507C18.5205 20.2492 18.0008 19.4696 17.9135 18.5652ZM19.7492 22.7991C19.4498 22.7991 19.0783 22.6491 18.8901 22.2369L18.9768 21.4999C19.2219 21.6142 19.4867 21.672 19.7517 21.672C20.0151 21.672 20.2781 21.6149 20.5218 21.5021L20.6083 22.2368C20.4201 22.6491 20.0486 22.7991 19.7492 22.7991ZM26.8713 22.2257C26.0755 22.375 25.4094 22.8628 25 23.5312C24.5905 22.8629 23.9244 22.375 23.1286 22.2257L21.4554 21.9117L21.3416 20.9449C21.9709 20.3656 22.3744 19.5581 22.4604 18.6585L22.5172 18.0638L23.5022 17.879C23.8293 18.4216 24.3987 18.7559 25.0361 18.7559C25.6735 18.7559 26.243 18.4216 26.5701 17.879L27.4821 18.0501L27.5407 18.6566C27.6273 19.5548 28.0306 20.3616 28.6589 20.9412L28.5446 21.9117L26.8713 22.2257ZM30.2508 22.7991C29.9514 22.7991 29.5798 22.6491 29.3917 22.2369L29.4784 21.5C29.7235 21.6142 29.9882 21.6721 30.2533 21.6721C30.5166 21.6721 30.7797 21.615 31.0233 21.5021L31.1098 22.2368C30.9217 22.6491 30.5502 22.7991 30.2508 22.7991Z" fill="#3E429A"/>
<path d="M30.5514 30.019L30.1681 30.414C29.3538 31.2536 28.8867 32.419 28.8867 33.6115V38.542C28.8867 38.7944 29.0834 38.999 29.3262 38.999C29.5689 38.999 29.7656 38.7944 29.7656 38.542V33.6115C29.7656 32.6612 30.1379 31.7324 30.7868 31.0633L31.17 30.6685C31.3424 30.4908 31.3437 30.2014 31.1729 30.0221C31.002 29.8427 30.7237 29.8414 30.5514 30.019Z" fill="#3E429A"/>
<path d="M22.8418 26.1523C22.5991 26.1523 22.4023 26.3569 22.4023 26.6094V31.2128C22.4023 31.4653 22.5991 31.6699 22.8418 31.6699C23.0845 31.6699 23.2812 31.4653 23.2812 31.2128V26.6094C23.2812 26.3569 23.0845 26.1523 22.8418 26.1523Z" fill="#3E429A"/>
<path d="M27.1581 26.1523C26.9153 26.1523 26.7188 26.3569 26.7188 26.6094V31.2128C26.7188 31.4653 26.9153 31.6699 27.1581 31.6699C27.4009 31.6699 27.5977 31.4653 27.5977 31.2128V26.6094C27.5977 26.3569 27.4009 26.1523 27.1581 26.1523Z" fill="#3E429A"/>
</svg>
