<svg width="50" height="50" viewBox="0 0 50 50" fill="none" xmlns="http://www.w3.org/2000/svg">
<path d="M37.8945 15.625C37.3363 15.6256 36.8012 15.8476 36.4066 16.2423C36.0119 16.6369 35.7899 17.1721 35.7893 17.7302V24.8879C35.3804 24.612 34.8883 24.4869 34.3973 24.5338C33.9063 24.5807 33.4469 24.7969 33.0977 25.1452L27.8363 30.4068C27.5306 30.7108 27.2882 31.0724 27.1232 31.4707C26.9582 31.869 26.8738 32.2961 26.875 32.7272V36.7183H25.9375C25.8132 36.7183 25.6939 36.7677 25.606 36.8556C25.5181 36.9435 25.4688 37.0627 25.4688 37.1871V39.5308C25.4688 39.6551 25.5181 39.7743 25.606 39.8622C25.6939 39.9501 25.8132 39.9995 25.9375 39.9995C26.0618 39.9995 26.181 39.9501 26.2689 39.8622C26.3568 39.7743 26.4062 39.6551 26.4062 39.5308V37.6558H35.781V39.5308C35.781 39.6551 35.8304 39.7743 35.9183 39.8622C36.0062 39.9501 36.1255 39.9995 36.2498 39.9995C36.3741 39.9995 36.4933 39.9501 36.5812 39.8622C36.6691 39.7743 36.7185 39.6551 36.7185 39.5308V37.1871C36.7185 37.0627 36.6691 36.9435 36.5812 36.8556C36.4933 36.7677 36.3741 36.7183 36.2498 36.7183H35.3123V35.5062L38.7642 32.0543C39.1573 31.6636 39.4688 31.1988 39.6809 30.6867C39.893 30.1747 40.0013 29.6257 39.9997 29.0715V17.7302C39.9991 17.1721 39.7771 16.6369 39.3824 16.2423C38.9878 15.8476 38.4526 15.6256 37.8945 15.625ZM39.0622 29.0715C39.0634 29.5025 38.9791 29.9295 38.8142 30.3277C38.6492 30.7259 38.4069 31.0875 38.1013 31.3914L34.5122 34.9807C34.4686 35.0242 34.4341 35.0759 34.4105 35.1327C34.3869 35.1896 34.3748 35.2505 34.3748 35.3121V36.7183H27.8125V32.7272C27.8116 32.4192 27.8719 32.1141 27.9897 31.8296C28.1076 31.5451 28.2807 31.2868 28.4991 31.0696L33.7608 25.8082C33.8711 25.6978 34.0022 25.6103 34.1464 25.5506C34.2906 25.4908 34.4451 25.4601 34.6012 25.4601C34.7573 25.4601 34.9118 25.4908 35.056 25.5506C35.2002 25.6103 35.3313 25.6978 35.4416 25.8082C35.552 25.9186 35.6395 26.0496 35.6993 26.1938C35.759 26.338 35.7897 26.4925 35.7897 26.6486C35.7897 26.8047 35.759 26.9593 35.6993 27.1035C35.6395 27.2477 35.552 27.3787 35.4416 27.4891L32.1685 30.762C32.0831 30.8504 32.0358 30.9688 32.0369 31.0917C32.038 31.2146 32.0873 31.3322 32.1742 31.4191C32.2611 31.506 32.3786 31.5553 32.5015 31.5564C32.6244 31.5575 32.7428 31.5102 32.8313 31.4248L36.1045 28.1519C36.422 27.8328 36.629 27.4203 36.6951 26.975C36.7449 26.838 36.7271 17.876 36.7271 17.7302C36.7271 17.4205 36.8501 17.1235 37.0691 16.9045C37.2881 16.6855 37.5851 16.5625 37.8948 16.5625C38.2045 16.5625 38.5015 16.6855 38.7205 16.9045C38.9395 17.1235 39.0625 17.4205 39.0625 17.7302L39.0622 29.0715Z" fill="black"/>
<path d="M24.0622 36.7184H23.1247V32.7273C23.1259 32.2962 23.0415 31.8691 22.8765 31.4708C22.7115 31.0726 22.4691 30.711 22.1635 30.407L16.902 25.1452C16.5528 24.7969 16.0934 24.5807 15.6024 24.5338C15.1114 24.4869 14.6193 24.612 14.2104 24.8879V17.7302C14.2104 17.1719 13.9886 16.6364 13.5938 16.2416C13.199 15.8468 12.6636 15.625 12.1052 15.625C11.5469 15.625 11.0114 15.8468 10.6166 16.2416C10.2218 16.6364 10 17.1719 10 17.7302V29.0716C9.99839 29.6258 10.1067 30.1748 10.3188 30.6868C10.5309 31.1989 10.8425 31.6637 11.2355 32.0544L14.6874 35.5063V36.7184H13.7499C13.6256 36.7184 13.5064 36.7678 13.4185 36.8557C13.3306 36.9436 13.2812 37.0628 13.2812 37.1871V39.5308C13.2812 39.6552 13.3306 39.7744 13.4185 39.8623C13.5064 39.9502 13.6256 39.9996 13.7499 39.9996C13.8743 39.9996 13.9935 39.9502 14.0814 39.8623C14.1693 39.7744 14.2187 39.6552 14.2187 39.5308V37.6559H23.5935V39.5308C23.5935 39.6552 23.6429 39.7744 23.7308 39.8623C23.8187 39.9502 23.9379 39.9996 24.0622 39.9996C24.1865 39.9996 24.3058 39.9502 24.3937 39.8623C24.4816 39.7744 24.531 39.6552 24.531 39.5308V37.1871C24.531 37.0628 24.4816 36.9436 24.3937 36.8557C24.3058 36.7678 24.1865 36.7184 24.0622 36.7184ZM15.4876 34.9808L11.8984 31.3915C11.5928 31.0876 11.3505 30.726 11.1856 30.3278C11.0206 29.9296 10.9363 29.5026 10.9375 29.0716V17.7303C10.9375 17.4206 11.0605 17.1236 11.2795 16.9046C11.4985 16.6856 11.7955 16.5626 12.1052 16.5626C12.4149 16.5626 12.7119 16.6856 12.9309 16.9046C13.1499 17.1236 13.2729 17.4206 13.2729 17.7303C13.2729 17.8764 13.2551 26.8375 13.305 26.9748C13.371 27.4203 13.578 27.8328 13.8956 28.152L17.1685 31.4249C17.2569 31.5103 17.3753 31.5576 17.4982 31.5565C17.6211 31.5554 17.7386 31.5061 17.8256 31.4192C17.9125 31.3323 17.9618 31.2147 17.9628 31.0918C17.9639 30.9689 17.9166 30.8505 17.8313 30.7621L14.5583 27.4891C14.3354 27.2662 14.2102 26.9639 14.2102 26.6487C14.2102 26.3335 14.3354 26.0312 14.5583 25.8083C14.7812 25.5854 15.0835 25.4602 15.3988 25.4602C15.714 25.4602 16.0163 25.5854 16.2392 25.8083L21.5007 31.0697C21.719 31.2869 21.8921 31.5452 22.01 31.8297C22.1278 32.1142 22.1881 32.4193 22.1873 32.7273V36.7184H15.6249V35.3122C15.6249 35.2506 15.6128 35.1897 15.5892 35.1328C15.5656 35.076 15.5311 35.0243 15.4876 34.9808Z" fill="black"/>
<path d="M31.5661 23.1251C31.5553 21.513 30.9557 19.9605 29.8802 18.7597C28.8047 17.5589 27.3273 16.7925 25.7262 16.6049C25.9145 16.2873 26.133 15.9885 26.3787 15.7129C26.7747 15.2905 27.5252 15.2798 28.3938 15.2684C29.432 15.2547 30.6089 15.2391 31.4901 14.4454C33.0648 13.0277 32.6291 10.4931 32.6098 10.3861C32.5912 10.2901 32.5429 10.2024 32.4717 10.1354C32.4004 10.0685 32.3099 10.0257 32.2129 10.0132C32.1147 10.0004 32.0149 10.0184 31.9273 10.0646C31.8397 10.1108 31.7685 10.183 31.7236 10.2713C31.7189 10.2801 31.2791 11.1081 29.2284 10.9822C26.4806 10.8179 25.7133 14.4611 25.5857 15.2025C25.3723 15.4477 25.1778 15.7086 25.0037 15.9831C24.8296 15.7086 24.635 15.4476 24.4216 15.2025C24.2928 14.4609 23.5185 10.8179 20.7791 10.9822C18.7769 11.1054 18.3063 10.3107 18.2848 10.2727C18.2431 10.1821 18.1735 10.1072 18.0863 10.0588C17.9991 10.0104 17.8987 9.99115 17.7997 10.0038C17.7008 10.0164 17.6084 10.0602 17.5361 10.1289C17.4638 10.1976 17.4153 10.2876 17.3976 10.3858C17.3784 10.4929 16.9426 13.0275 18.5173 14.4451C19.3986 15.2389 20.5754 15.2544 21.6136 15.2682C22.4818 15.2795 23.2321 15.2902 23.6282 15.7122C23.8741 15.9881 24.0927 16.287 24.2811 16.6049C23.022 16.7446 21.8301 17.2459 20.8496 18.0482C19.8691 18.8504 19.1418 19.9194 18.7556 21.126C18.3694 22.3326 18.3408 23.6253 18.6732 24.8478C19.0056 26.0703 19.6848 27.1705 20.6288 28.0154C21.5728 28.8603 22.7413 29.4139 23.993 29.6092C25.2448 29.8045 26.5263 29.6333 27.6829 29.1162C28.8395 28.599 29.8216 27.7581 30.5107 26.695C31.1997 25.6319 31.5663 24.392 31.5661 23.1251ZM25.9787 28.6595C25.8938 28.2628 25.917 27.8505 26.0458 27.4657C26.1746 27.0809 26.4044 26.7378 26.7111 26.4722C27.8564 25.5109 27.6738 24.466 27.5401 23.7023C27.4536 23.3919 27.4417 23.0655 27.5053 22.7497C27.5873 22.5099 28.1059 22.4238 28.6548 22.3325C29.2851 22.2629 29.8975 22.0788 30.4617 21.7893C30.6485 22.5364 30.6789 23.314 30.5512 24.0735C30.4235 24.8329 30.1403 25.5578 29.7195 26.2027C29.2987 26.8477 28.7492 27.3988 28.1055 27.8215C27.4618 28.2443 26.7377 28.5296 25.9787 28.6595ZM25.0037 17.5002C25.4632 17.502 25.9208 17.5604 26.366 17.674L24.9863 20.1529L22.1748 19.7336L21.5101 18.7245C22.5019 17.9317 23.734 17.5 25.0037 17.5002ZM29.1716 11.9179C30.0509 12.0187 30.9407 11.8673 31.7373 11.4816C31.7478 11.8984 31.676 12.3131 31.526 12.7021C31.3759 13.0911 31.1506 13.4467 30.863 13.7484C30.2436 14.306 29.297 14.3183 28.3815 14.3307C28.1083 14.3342 27.8331 14.3385 27.5629 14.3568C28.1181 13.895 28.8135 13.6349 29.5355 13.619C29.597 13.6179 29.6578 13.6047 29.7142 13.5801C29.7707 13.5556 29.8217 13.5201 29.8645 13.4758C29.9072 13.4315 29.9408 13.3792 29.9633 13.3219C29.9859 13.2646 29.9969 13.2035 29.9958 13.1419C29.997 13.0797 29.9854 13.0179 29.9616 12.9604C29.9379 12.9029 29.9025 12.851 29.8578 12.8078C29.813 12.7645 29.7598 12.731 29.7015 12.7093C29.6432 12.6876 29.5811 12.6782 29.519 12.6815C28.6306 12.7002 27.772 13.0056 27.0714 13.5523C27.4992 12.6347 28.1657 11.8566 29.1716 11.9179ZM19.1444 13.7484C18.8568 13.4467 18.6315 13.0911 18.4814 12.7021C18.3314 12.3131 18.2596 11.8984 18.2702 11.4816C19.0666 11.8678 19.9565 12.0191 20.8359 11.9178C21.8762 11.8548 22.533 12.6818 22.9374 13.5529C22.2365 13.0058 21.3774 12.7001 20.4884 12.6815C20.4267 12.6797 20.3652 12.6902 20.3075 12.7125C20.2499 12.7348 20.1973 12.7684 20.1529 12.8113C20.1084 12.8542 20.073 12.9056 20.0487 12.9624C20.0244 13.0192 20.0118 13.0803 20.0114 13.142C20.0103 13.2036 20.0214 13.2648 20.0439 13.3221C20.0665 13.3793 20.1001 13.4316 20.1429 13.4759C20.1856 13.5202 20.2367 13.5557 20.2932 13.5802C20.3496 13.6048 20.4104 13.618 20.4719 13.619C21.194 13.6349 21.8894 13.895 22.4446 14.3568C22.1745 14.3385 21.899 14.3342 21.6259 14.3307C20.7104 14.3183 19.7638 14.306 19.1444 13.7484ZM19.3788 23.1251C19.3808 22.818 19.4081 22.5115 19.4602 22.2088C19.4964 22.3324 19.5342 22.459 19.5766 22.5927C19.8476 23.4478 20.9448 24.1216 21.8265 24.6636C22.0627 24.8089 22.3648 24.9941 22.5351 25.1227C22.2934 25.546 21.7027 26.4645 21.1878 27.2457C20.6179 26.7212 20.1629 26.0842 19.8515 25.3749C19.5402 24.6657 19.3792 23.8996 19.3788 23.1251ZM21.9269 27.8282C22.4178 27.0854 23.3537 25.6497 23.5037 25.2843C23.7303 24.7327 23.1682 24.3871 22.3173 23.8648C21.6475 23.4533 20.6359 22.8316 20.4704 22.3098C20.2825 21.7265 20.1317 21.1319 20.0187 20.5296C20.2368 20.1144 20.5057 19.728 20.8194 19.3794L21.5069 20.4239C21.5431 20.4789 21.5906 20.5257 21.6461 20.5612C21.7016 20.5967 21.764 20.6201 21.8292 20.6299L25.1689 21.1279C25.1918 21.1312 25.2149 21.1328 25.2381 21.1329C25.3216 21.1329 25.4036 21.1106 25.4757 21.0683C25.5477 21.0259 25.6071 20.9651 25.6478 20.8921L27.2687 17.9803C28.5569 18.5507 29.5857 19.5816 30.1537 20.8709C29.6526 21.1768 29.0866 21.3608 28.5014 21.408C27.7054 21.5399 26.8823 21.6763 26.6182 22.4458C26.4947 22.9105 26.4941 23.3993 26.6164 23.8643C26.7413 24.5771 26.8398 25.1401 26.1087 25.7544C25.6816 26.1141 25.3578 26.5808 25.1705 27.1069C24.9833 27.6329 24.9394 28.1993 25.0433 28.7479C25.0299 28.7479 25.017 28.75 25.0037 28.75C23.91 28.7504 22.8402 28.4299 21.9269 27.8282Z" fill="black"/>
</svg>
