<svg width="50" height="50" viewBox="0 0 50 50" fill="none" xmlns="http://www.w3.org/2000/svg">
<path d="M31.5378 21.1993C32.477 20.076 33.5007 18.5846 33.5007 16.4785C33.5007 12.8993 30.5244 9.99992 26.8825 10C23.2447 10.0001 20.5007 12.8828 20.5007 16.4386C20.5007 18.4876 21.4137 19.9708 22.2722 21.0901C22.7014 21.6497 23.1155 22.1276 23.405 22.5364C23.5494 22.7403 23.6572 22.9223 23.7292 23.0833C23.5904 23.1717 23.4983 23.3273 23.4977 23.5042C23.4966 23.7819 23.722 24.0082 23.9997 24.0071V26.0237C23.8083 25.9947 23.6145 26.0011 23.4274 26.0442C22.6372 26.2264 21.9987 26.9955 21.9987 28.0042V31.0023C21.9987 32.6519 21.1671 34.4999 21.0222 36.5903L20.5856 36.5063C20.3786 36.4667 20.1687 36.5612 20.0612 36.7426L18.57 39.2417C18.4279 39.4791 18.506 39.7868 18.7438 39.9282C18.9813 40.0703 19.2889 39.9922 19.4304 39.7544L20.7409 37.5542L33.3971 39.9907C33.6695 40.0437 33.9329 39.865 33.984 39.5923C34.0349 39.3224 33.858 39.0622 33.5885 39.0092L33.5651 39.0043C33.7839 38.7769 34.0352 38.5276 34.3229 38.2592C35.0151 37.6136 35.8659 36.8633 36.693 36.0668C37.5202 35.2703 38.3269 34.4314 38.941 33.5863C39.5551 32.7412 39.9996 31.8852 39.9996 31.0023C40.0104 29.8943 39.7075 27.8525 39.4059 26.0218C39.1039 24.1883 38.7965 22.6067 38.7965 22.6067C38.6319 21.7486 38.0379 21.1852 37.3864 21.0422C37.1107 20.9817 36.8292 20.9862 36.5621 21.05C36.5525 20.8604 36.5334 20.6579 36.5192 20.4738C36.3162 19.4257 35.5053 18.9468 34.7516 19.004C33.9979 19.0612 33.2749 19.6677 33.234 20.5578L33.0807 24.05L31.8761 21.6432C31.7805 21.4662 31.6664 21.3212 31.5378 21.1993ZM32.4997 16.4787C32.4997 18.3704 31.5524 19.6492 30.6129 20.7444C30.2836 20.69 29.9438 20.7255 29.6393 20.8459C28.902 21.1377 28.3171 21.9483 28.5729 23.0051H27.4987V20.2121L28.8532 18.8527C29.047 18.6577 29.047 18.3417 28.8532 18.1467C28.6578 17.9503 28.3396 17.9503 28.1442 18.1467L27.0007 19.2961L25.8522 18.1467C25.6076 17.9284 25.3306 17.982 25.1471 18.1467C24.9533 18.3417 24.9533 18.6577 25.1471 18.8527L26.4987 20.2082V23.0051H24.7614C24.6589 22.6333 24.4563 22.293 24.2214 21.9612C23.8853 21.4865 23.4708 21.0123 23.0661 20.4846C22.2566 19.4292 21.5007 18.1953 21.5007 16.4386C21.5007 13.3889 23.7649 11.0001 26.8825 11.0001C29.996 11.0001 32.4997 13.4523 32.4997 16.4787ZM26.4987 12.4991C26.4976 12.7769 26.723 13.0032 27.0007 13.0021C28.2519 13.0021 29.4053 13.6673 30.0309 14.7511C30.1697 14.9894 30.475 15.0701 30.7135 14.9318C30.9531 14.7942 31.0358 14.4887 30.8981 14.2492C30.0947 12.8573 28.6076 12.0011 26.9875 12.0011C26.71 12.0134 26.4996 12.2315 26.4987 12.4991ZM36.4811 12.003C36.3607 12.009 36.2465 12.0617 36.1461 12.1446L35.6442 12.6465C35.4504 12.8416 35.4504 13.1575 35.6442 13.3526C35.8396 13.5489 36.1577 13.5489 36.3532 13.3526L36.8512 12.8545C37.0475 12.6591 37.0475 12.3401 36.8512 12.1446C36.7281 12.0375 36.6015 11.9969 36.4811 12.003ZM17.4675 12.5049C17.3435 12.514 17.2305 12.5697 17.1452 12.6465C16.9514 12.8416 16.9514 13.1576 17.1452 13.3526L17.6472 13.8546C17.8422 14.0484 18.1572 14.0484 18.3523 13.8546C18.5486 13.6591 18.5486 13.341 18.3523 13.1456L17.8542 12.6465C17.7261 12.5336 17.5914 12.4959 17.4675 12.5049ZM36.9606 14.5001C36.6917 14.5078 36.4762 14.7286 36.4752 14.9991C36.4741 15.2754 36.6971 15.5001 36.9733 15.5011H37.4938C37.77 15.5001 37.9929 15.2754 37.9918 14.9991C37.9909 14.7243 37.7686 14.501 37.4938 14.5001H36.9733C36.9689 14.5001 36.9648 14.5 36.9606 14.5001ZM16.502 14.9991C16.2364 15.0116 15.9989 15.231 16 15.5C16.0009 15.7763 16.2237 16.0011 16.5 16H17C17.2762 16.0011 17.499 15.7763 17.5 15.5C17.5011 15.2223 17.2777 14.9989 17 15L16.502 14.9991ZM30.9997 16.0001C30.7236 16.0001 30.4997 16.2239 30.4997 16.5001C30.4997 16.7763 30.7236 17.0001 30.9997 17.0001C31.2758 17.0001 31.4996 16.7763 31.4997 16.5001C31.4996 16.2239 31.2758 16.0001 30.9997 16.0001ZM35.9694 16.503C35.8448 16.5115 35.7303 16.5687 35.6442 16.6486C35.4504 16.8436 35.4504 17.1586 35.6442 17.3536L36.1461 17.8556C36.3412 18.0495 36.6562 18.0495 36.8512 17.8556C37.0475 17.6601 37.0475 17.3421 36.8512 17.1466L36.3532 16.6486C36.2287 16.5347 36.094 16.4945 35.9694 16.503ZM17.6472 17.1466L17.1452 17.6447C16.9489 17.8401 16.9489 18.1591 17.1452 18.3546C17.3406 18.551 17.6588 18.551 17.8542 18.3546L18.3523 17.8556C18.5486 17.6601 18.5486 17.3421 18.3523 17.1466C18.122 16.9247 17.8072 16.9886 17.6472 17.1466ZM14.4987 19.5031C14.2737 19.5022 14.0759 19.6516 14.0154 19.8683C13.5938 21.4129 12.573 22.5808 11.3288 23.0314C10.8876 23.19 10.8876 23.8153 11.3288 23.9738C12.5735 24.4228 13.5963 25.5889 14.0192 27.1331C14.1553 27.6208 14.8471 27.6208 14.9831 27.1331C15.4046 25.5885 16.4254 24.4206 17.6696 23.9699C18.1109 23.8113 18.1109 23.1861 17.6696 23.0275C16.4249 22.5786 15.4021 21.4125 14.9792 19.8683C14.9189 19.6529 14.7224 19.5039 14.4987 19.5031ZM35.5338 20.6584L35.9987 27.5354C36.0174 27.812 36.2574 28.0204 36.5338 28.0003C36.8089 27.9816 37.0167 27.7441 36.9987 27.469L36.6325 22.0842C36.7998 22.0055 36.9955 21.9769 37.1725 22.0158C37.4579 22.0785 37.7117 22.2564 37.8151 22.7951C37.8151 22.7951 38.1172 24.3658 38.4166 26.1838C38.7161 28.0019 39.009 30.1048 38.9997 31.0003C38.9997 31.5249 38.6863 32.2374 38.1325 32.9994C37.5787 33.7614 36.8059 34.5699 35.9987 35.3471C35.1915 36.1243 34.3513 36.8692 33.6442 37.5288C33.1459 37.9935 32.7244 38.398 32.4088 38.7817L22.0134 36.7806C22.1311 34.8852 22.9997 33.0015 22.9997 31.0022V28.0042C22.9997 27.3954 23.3506 27.0918 23.653 27.0188C24.05 26.9326 24.3775 27.2064 24.5309 27.6829C25.23 29.5024 25.9107 31.321 26.5241 33.1615C26.6109 33.4252 26.8958 33.5676 27.1589 33.4788C27.4211 33.3905 27.5624 33.1061 27.4733 32.8441C27.4232 32.6937 27.3719 32.5438 27.321 32.3939C27.4389 32.3282 28.3916 31.7942 29.363 31.0169C29.8793 30.6037 30.3858 30.1356 30.7506 29.6175C31.1141 29.1014 31.365 28.4764 31.1569 27.8469C30.6251 26.1855 30.0929 24.5268 29.5622 22.8683C29.3865 22.2021 29.711 21.9001 30.0046 21.7765C30.3094 21.6461 30.7709 21.7023 30.9938 22.1124L34.2311 28.5832C34.6003 29.3212 34.7077 29.5965 34.7223 29.8654C34.7369 30.1344 34.6412 30.5369 34.5045 31.426C34.4615 31.7005 34.6496 31.9576 34.9245 31.9983C35.1976 32.0391 35.4531 31.8506 35.4938 31.5774C35.6256 30.7199 35.7452 30.3029 35.7184 29.8098C35.6916 29.3166 35.5026 28.8884 35.1247 28.133L34.0026 25.8908L34.235 20.6026C34.253 20.2117 34.5511 20.0242 34.8288 20.0011C35.1024 19.9824 35.4294 20.1172 35.5338 20.6584ZM14.4987 21.34C14.9917 22.343 15.563 22.981 16.4001 23.5002C15.5354 24.0534 14.9904 24.7075 14.4987 25.6506C14.055 24.7454 13.372 23.9343 12.6013 23.5041C13.4687 22.9335 14.0134 22.306 14.4987 21.34ZM24.9997 24.007H28.8757L29.0007 24.3977V26.5051C29.0007 26.7906 28.7844 27.0042 28.4987 27.0042H25.3307C25.2389 26.8328 25.1217 26.6564 24.9977 26.5276C25.0028 26.3483 24.9996 26.1861 24.9996 26.0032H27.4987C27.7763 26.0043 28.0017 25.7789 28.0006 25.5012C27.9997 25.2249 27.7749 25.0021 27.4987 25.0032H24.9996L24.9997 24.007ZM18.4968 26.5032C18.2731 26.504 18.0765 26.653 18.0163 26.8684C17.7501 27.8088 17.1087 28.5128 16.3337 28.7835C15.8924 28.942 15.8924 29.5663 16.3337 29.7249C17.109 29.9945 17.7531 30.7008 18.0202 31.6409C18.1608 32.12 18.8396 32.12 18.9802 31.6409C19.2464 30.7006 19.8878 29.9955 20.6628 29.7249C21.111 29.5694 21.111 28.935 20.6628 28.7796C19.8875 28.51 19.2473 27.8085 18.9802 26.8684C18.9196 26.6517 18.7218 26.5023 18.4968 26.5032ZM30.2058 28.1589C30.2753 28.3626 30.2082 28.6536 29.9353 29.0413C29.6622 29.429 29.2131 29.8552 28.7389 30.2347C27.9631 30.8555 27.2654 31.2679 26.988 31.428C26.5839 30.2791 26.16 29.1398 25.7272 28.0042H28.4987C29.1048 28.0042 29.6337 27.6361 29.8698 27.1135L30.2058 28.1589ZM18.4968 28.2219C18.8038 28.6961 19.0114 28.9104 19.4392 29.2522C19.0715 29.5506 18.8017 29.7986 18.5007 30.2835C18.1714 29.7474 17.81 29.4469 17.5544 29.2532C17.9034 28.9888 18.2345 28.67 18.4968 28.2219ZM12.2624 29.3782C11.9526 30.5677 11.2049 31.453 10.321 31.7884C9.893 31.9525 9.893 32.5578 10.321 32.722C11.2052 33.0561 11.9554 33.9401 12.2663 35.1293C12.3973 35.626 13.1021 35.626 13.2331 35.1293C13.543 33.9398 14.2946 33.0535 15.1784 32.7181C15.6058 32.5523 15.6032 31.9469 15.1746 31.7845C14.2905 31.4504 13.5441 30.5674 13.2332 29.3782C13.1754 29.1585 12.977 29.0042 12.7498 29.0042C12.5212 29.0025 12.3206 29.1572 12.2624 29.3782ZM12.7497 30.8499C13.1133 31.4975 13.523 31.929 13.9665 32.2532C13.3923 32.6769 12.9789 33.2303 12.7497 33.6683C12.3961 32.9658 11.8456 32.4921 11.5329 32.2532C12.0761 31.8685 12.4361 31.3843 12.7497 30.8499Z" fill="#3E429A"/>
</svg>
