<svg width="50" height="50" viewBox="0 0 50 50" fill="none" xmlns="http://www.w3.org/2000/svg">
<path d="M39.8703 27.9396L35.5072 19.5921C35.4408 19.4649 35.3513 19.3527 35.2436 19.2618C35.1359 19.171 35.0123 19.1033 34.8797 19.0627C34.7472 19.0221 34.6083 19.0093 34.471 19.0251C34.3338 19.041 34.2008 19.085 34.0798 19.1549L32.8127 19.886C32.5853 20.0185 32.4129 20.2351 32.3288 20.4936C32.2447 20.7521 32.2549 21.0343 32.3575 21.2853C32.1955 21.3641 32.0261 21.4246 31.852 21.4657C31.5182 21.5359 31.1747 21.5385 30.84 21.4734C30.9011 21.3422 30.9637 21.2135 31.0222 21.0781C32.0245 18.7405 32.4713 16.1821 32.3242 13.623C32.3149 13.4526 32.2506 13.2906 32.1418 13.1638C32.0331 13.0371 31.8864 12.9531 31.7261 12.9258L31.4933 12.8854C30.5068 12.7485 29.5398 12.4856 28.6138 12.1025C27.4792 11.5776 26.4049 10.9192 25.4116 10.1399C25.2918 10.049 25.1478 10 25 10C24.8522 10 24.7082 10.049 24.5884 10.1399C23.5951 10.9192 22.5208 11.5776 21.3862 12.1025C20.4602 12.4856 19.4932 12.7485 18.5067 12.8854L18.2734 12.9258C18.1132 12.9533 17.9667 13.0373 17.858 13.1641C17.7494 13.2908 17.6851 13.4527 17.6758 13.623C17.5287 16.1821 17.9754 18.7405 18.9778 21.0781C19.151 21.4791 19.3381 21.8578 19.5324 22.222C19.3065 22.1664 19.0806 22.1099 18.8543 22.0599C18.3886 21.9559 17.9417 21.7745 17.5304 21.5226L17.6024 21.3849C17.7359 21.128 17.7671 20.826 17.6892 20.545C17.6113 20.264 17.4307 20.0268 17.1868 19.8854L15.92 19.1549C15.799 19.0851 15.6661 19.041 15.5289 19.0252C15.3917 19.0094 15.2529 19.0221 15.1204 19.0627C14.9879 19.1032 14.8643 19.1708 14.7567 19.2616C14.649 19.3523 14.5594 19.4644 14.4931 19.5916L10.1297 27.9396C10.0633 28.0666 10.0213 28.2062 10.0063 28.3503C9.99121 28.4944 10.0033 28.6402 10.0419 28.7794C10.0805 28.9186 10.1448 29.0485 10.2311 29.1615C10.3175 29.2746 10.4242 29.3687 10.5451 29.4385L11.8119 30.1701C11.9664 30.2595 12.1398 30.3064 12.3161 30.3065C12.4161 30.3065 12.5155 30.2916 12.6115 30.2623C12.7466 30.221 12.8724 30.1514 12.9814 30.0578C13.3012 30.4758 13.6301 30.881 13.9681 31.2734C13.7678 31.6136 13.6915 32.0185 13.7535 32.4133C13.8155 32.808 14.0115 33.1657 14.3052 33.4203C14.5862 33.6628 14.9389 33.795 15.3026 33.7944C15.3994 33.7928 15.496 33.7818 15.5909 33.7617C15.5299 34.0058 15.523 34.2615 15.5708 34.5089C15.6185 34.7563 15.7196 34.9889 15.8663 35.1888C16.0129 35.3888 16.2013 35.5507 16.4169 35.6622C16.6324 35.7737 16.8695 35.8318 17.1098 35.832C17.1624 35.832 17.2155 35.8293 17.2683 35.8239C17.4952 35.7991 17.7142 35.7226 17.91 35.5997C17.9221 35.8269 17.9789 36.049 18.0768 36.2521C18.1746 36.4551 18.3115 36.6346 18.4787 36.7793C18.7593 37.0221 19.1118 37.1548 19.4753 37.1546C19.5279 37.1546 19.581 37.1519 19.6339 37.1465C19.9074 37.1164 20.1685 37.0111 20.3908 36.8411C20.3853 37.0606 20.4218 37.2791 20.4981 37.4837C20.5743 37.6882 20.6888 37.8746 20.8347 38.0319C20.9807 38.1891 21.1552 38.3141 21.3478 38.3994C21.5405 38.4847 21.7475 38.5285 21.9566 38.5284C22.0092 38.5284 22.062 38.5257 22.1151 38.5203C22.445 38.4854 22.7556 38.3411 23.0021 38.1081C24.0476 38.6317 25.1812 38.9337 26.3379 38.9969C27.0071 39.0292 27.6652 38.8089 28.1933 38.3758C28.4226 38.1712 28.6134 37.9234 28.7559 37.6451C28.7962 37.6473 28.8369 37.6587 28.8768 37.6587C29.2241 37.6611 29.5668 37.5752 29.8757 37.4085C30.1846 37.2418 30.4506 36.9991 30.6509 36.7011C30.8174 36.4469 30.9296 36.1579 30.9799 35.8539C31.3097 35.8096 31.6242 35.6817 31.8965 35.4812C32.1687 35.2807 32.3905 35.0136 32.5425 34.7029C32.7329 34.3081 32.7992 33.86 32.7319 33.423C32.9369 33.3707 33.1316 33.2812 33.3074 33.1587C33.6097 32.9704 33.8545 32.6954 34.0132 32.366C34.1718 32.0366 34.2378 31.6665 34.2033 31.2991C35.0649 30.7834 35.8899 30.2029 36.6717 29.5622L36.7609 29.7328C36.827 29.8603 36.9165 29.9727 37.0242 30.0636C37.132 30.1545 37.2558 30.222 37.3885 30.2623C37.4844 30.2916 37.5838 30.3065 37.6836 30.3065C37.8602 30.3065 38.0339 30.2594 38.1883 30.1696L39.4549 29.4385C39.5758 29.3687 39.6825 29.2746 39.7689 29.1615C39.8552 29.0485 39.9195 28.9186 39.9581 28.7794C39.9967 28.6402 40.0088 28.4944 39.9937 28.3503C39.9787 28.2062 39.9367 28.0666 39.8703 27.9396ZM18.7114 13.9691C19.766 13.8201 20.7992 13.5358 21.788 13.1226C22.9234 12.6041 24.0007 11.9549 25 11.187C25.9993 11.955 27.0765 12.6042 28.212 13.1226C29.2008 13.5358 30.234 13.8201 31.2886 13.9691C31.3792 16.2565 30.9602 18.5346 30.0651 20.6219C28.9666 23.135 27.2097 25.2675 25 26.7701C22.9763 25.4022 21.3303 23.4996 20.2266 21.253C19.123 19.0064 18.6005 16.4946 18.7114 13.9691ZM22.0473 25.6803C21.5835 26.0129 21.0686 26.259 20.5253 26.4078C20.0032 26.5585 19.4593 26.6071 18.9206 26.5512L20.6594 24.0265C21.0846 24.6113 21.5483 25.1639 22.0473 25.6803ZM12.3177 29.2023L11.0511 28.4712L15.4142 20.1232L16.681 20.8538L12.3281 29.1824L12.3177 29.2023ZM14.9711 32.5662C14.8634 32.4733 14.7952 32.3388 14.7815 32.1931C14.7677 32.0475 14.8095 31.902 14.8977 31.7887L15.7773 30.6613C15.8209 30.605 15.8747 30.5584 15.9356 30.5242C15.9964 30.4899 16.0632 30.4687 16.1319 30.4618C16.1496 30.4602 16.1671 30.4591 16.1848 30.4591C16.2842 30.4593 16.3815 30.4891 16.4654 30.5451C16.5494 30.6011 16.6164 30.681 16.6589 30.7755C16.7013 30.8699 16.7174 30.9751 16.7053 31.0788C16.6931 31.1824 16.6532 31.2803 16.5902 31.3611L15.7108 32.4885C15.6225 32.6018 15.4949 32.6735 15.3562 32.6881C15.2176 32.7027 15.079 32.6588 14.9711 32.5662ZM17.1647 34.725C17.0261 34.7393 16.8878 34.6953 16.7801 34.6027C16.7267 34.5567 16.6822 34.5002 16.6496 34.4362C16.617 34.3723 16.5967 34.3023 16.5899 34.2301C16.5831 34.158 16.5899 34.0851 16.6099 34.0158C16.6299 33.9464 16.6627 33.8818 16.7064 33.8257L18.7045 31.2631C18.793 31.1502 18.9205 31.0789 19.0591 31.0647C19.1976 31.0505 19.3358 31.0946 19.4434 31.1873C19.551 31.28 19.6193 31.4138 19.6332 31.5593C19.6471 31.7047 19.6056 31.8501 19.5176 31.9634L17.5193 34.5256C17.4757 34.5818 17.4219 34.6284 17.361 34.6627C17.3002 34.6969 17.2334 34.7181 17.1647 34.725ZM19.1451 35.9252C19.0374 35.8324 18.9694 35.6984 18.9556 35.5528C18.9418 35.4071 18.9835 35.2617 19.0717 35.1483L20.4039 33.4402C20.4475 33.3839 20.5013 33.3373 20.5622 33.3031C20.6231 33.2688 20.6898 33.2476 20.7585 33.2407C20.8973 33.2272 21.0355 33.2711 21.1439 33.3631C21.2516 33.456 21.3198 33.59 21.3335 33.7357C21.3473 33.8814 21.3054 34.0268 21.2171 34.14L19.8848 35.8481C19.8411 35.9043 19.7873 35.9508 19.7264 35.9851C19.6656 36.0194 19.5989 36.0407 19.5302 36.0479C19.4615 36.055 19.3921 36.0479 19.326 36.0268C19.2599 36.0058 19.1984 35.9713 19.1451 35.9252ZM22.0115 37.4215C21.908 37.4323 21.8039 37.4106 21.7121 37.3592C21.6204 37.3079 21.5453 37.229 21.4962 37.1328C21.4471 37.0365 21.4263 36.9271 21.4364 36.8184C21.4465 36.7097 21.487 36.6066 21.5529 36.5221L22.1054 35.8137C22.149 35.7574 22.2028 35.7108 22.2636 35.6765C22.3245 35.6423 22.3913 35.6211 22.46 35.6142C22.4777 35.6125 22.4951 35.6115 22.5128 35.6115C22.6123 35.6117 22.7096 35.6415 22.7935 35.6975C22.8774 35.7535 22.9445 35.8334 22.987 35.9278C23.0294 36.0223 23.0455 36.1274 23.0333 36.2311C23.0212 36.3348 22.9813 36.4327 22.9183 36.5135L22.3656 37.222C22.3221 37.2782 22.2684 37.3248 22.2076 37.3591C22.1468 37.3933 22.0801 37.4146 22.0115 37.4215ZM32.7216 32.2422C32.2351 32.5861 31.5744 32.2276 31.3832 32.1101L27.4217 29.6725C27.3014 29.5986 27.1581 29.5779 27.0233 29.615C26.8884 29.6521 26.7731 29.7439 26.7027 29.8703C26.6323 29.9966 26.6125 30.1472 26.6478 30.2889C26.683 30.4306 26.7703 30.5517 26.8906 30.6258L30.8521 33.0633C31.1025 33.2181 31.3729 33.334 31.6548 33.4077C31.7036 33.555 31.7197 33.7121 31.7018 33.8669C31.684 34.0217 31.6327 34.1701 31.5518 34.3009C31.4709 34.4317 31.3627 34.5413 31.2353 34.6213C31.108 34.7014 30.9648 34.7498 30.8169 34.7628L26.9514 32.5883C26.8286 32.5204 26.6852 32.5062 26.5525 32.5489C26.4198 32.5916 26.3085 32.6877 26.243 32.8163C26.1775 32.9448 26.163 33.0954 26.2028 33.2351C26.2425 33.3748 26.3332 33.4923 26.4551 33.562L29.9656 35.5365C29.9536 35.7271 29.8928 35.9107 29.7898 36.0681C29.6643 36.2501 29.4921 36.3907 29.2932 36.4735C29.0944 36.5563 28.8773 36.5778 28.6672 36.5356L25.7118 35.1542C25.5844 35.0951 25.44 35.0915 25.3102 35.1442C25.1803 35.1969 25.0757 35.3015 25.0191 35.4351C24.9626 35.5687 24.9588 35.7205 25.0086 35.857C25.0584 35.9936 25.1578 36.1038 25.2848 36.1635L27.7142 37.2987C27.6579 37.3822 27.5929 37.4588 27.5205 37.5271C26.8645 38.1004 25.526 37.987 23.7217 37.2254L23.7312 37.2133C23.9288 36.9599 24.0504 36.6507 24.0808 36.3246C24.1111 35.9986 24.0487 35.6704 23.9015 35.3817C23.7543 35.0929 23.5289 34.8564 23.2539 34.7022C22.9788 34.548 22.6663 34.483 22.3561 34.5153C22.3066 34.5205 22.26 34.5356 22.2118 34.5454C22.3413 34.2808 22.4005 33.9843 22.3831 33.6873C22.3658 33.3902 22.2725 33.1036 22.1131 32.8576C21.9538 32.6115 21.7342 32.4152 21.4776 32.2893C21.2209 32.1633 20.9367 32.1124 20.6549 32.1419C20.635 32.1439 20.6167 32.1511 20.597 32.154C20.7189 31.7869 20.7138 31.3865 20.5826 31.023C20.4514 30.6595 20.2025 30.3562 19.8796 30.1663C19.5567 29.9764 19.1805 29.9121 18.817 29.9847C18.4535 30.0573 18.126 30.2621 17.8919 30.5632L17.7358 30.7633C17.6919 30.4463 17.561 30.1496 17.3592 29.9095C17.1574 29.6694 16.8934 29.4962 16.5994 29.4111C16.3055 29.3261 15.9943 29.3329 15.704 29.4306C15.4136 29.5283 15.1566 29.7128 14.9644 29.9615L14.6284 30.392C14.2683 29.9678 13.9198 29.5289 13.5827 29.0754L17.0249 22.4898C17.5268 22.7942 18.0712 23.0138 18.638 23.1404C19.0199 23.2247 19.4009 23.3201 19.7799 23.4204L18.0692 25.9042C17.9593 26.0612 17.8915 26.2464 17.8728 26.4403C17.8542 26.6342 17.8854 26.8299 17.9632 27.0068C18.0408 27.185 18.1617 27.3386 18.3139 27.452C18.466 27.5655 18.6439 27.6347 18.8297 27.6527C19.0037 27.6694 19.177 27.6777 19.3496 27.6775C19.8409 27.6781 20.3301 27.609 20.8039 27.4721C21.5374 27.2707 22.2258 26.919 22.8296 26.4373C23.3937 26.9476 23.9939 27.4123 24.6248 27.8274C24.7369 27.9019 24.8667 27.9416 24.9993 27.9417C25.1319 27.9419 25.2618 27.9027 25.3741 27.8285C25.9709 27.4362 26.5402 26.9993 27.0774 26.5213C27.7582 26.9093 28.3248 27.2362 28.4298 27.3023C29.4019 27.9204 30.3424 28.5917 31.2475 29.3134L31.4782 29.493C32.1553 30.0181 32.8556 30.5611 33.1306 31.2986C33.3144 31.7925 32.8222 32.171 32.7216 32.2422ZM33.7926 30.2727C33.3247 29.6186 32.7528 29.0542 32.1022 28.6044L31.8772 28.4292C30.9428 27.6845 29.9719 26.9918 28.9685 26.3539C28.8596 26.2857 28.412 26.0271 27.9005 25.7344C28.8412 24.7709 29.6556 23.6801 30.3222 22.4908C30.648 22.5802 30.9832 22.6266 31.3199 22.6288C31.8517 22.6314 32.377 22.5052 32.8549 22.2598L36.1588 28.5809C35.4105 29.2048 34.6196 29.7702 33.7926 30.2727ZM38.9491 28.4707L37.6823 29.2018L33.3192 20.8538L34.5858 20.1232L38.9491 28.4707Z" fill="#3E429A"/>
<path d="M23.9044 21.7363C23.8051 21.7359 23.7071 21.7129 23.6172 21.6689C23.5272 21.6248 23.4474 21.5608 23.3832 21.4812L22.04 19.8308C21.9495 19.7195 21.9048 19.575 21.9157 19.429C21.9266 19.2831 21.9923 19.1476 22.0982 19.0525C22.2042 18.9574 22.3418 18.9105 22.4807 18.9219C22.6196 18.9334 22.7485 19.0024 22.839 19.1137L23.9036 20.4218L27.1559 16.399C27.2465 16.2885 27.375 16.2201 27.5133 16.2087C27.6517 16.1973 27.7888 16.2439 27.8945 16.3384C28.0003 16.4328 28.0663 16.5673 28.078 16.7126C28.0897 16.8579 28.0462 17.0022 27.957 17.114L24.4278 21.4791C24.3635 21.5591 24.2835 21.6235 24.1933 21.6679C24.1031 21.7123 24.004 21.7356 23.9044 21.7363Z" fill="#3E429A"/>
</svg>
